HIERARCHY
ROOT Hips
{
	OFFSET -0.001795 -0.223333 0.028219
	CHANNELS 6 Xposition Yposition Zposition Zrotation Yrotation Xrotation 
	JOINT LeftUpLeg
	{
		OFFSET 0.069520 -0.091406 -0.006815
		CHANNELS 3 Zrotation Yrotation Xrotation
		JOINT LeftLeg
		{
			OFFSET 0.034277 -0.375199 -0.004496
			CHANNELS 3 Zrotation Yrotation Xrotation
			JOINT LeftFoot
			{
				OFFSET -0.013596 -0.397961 -0.043693
				CHANNELS 3 Zrotation Yrotation Xrotation
				JOINT LeftToe
				{
					OFFSET 0.026358 -0.055791 0.119288
					CHANNELS 3 Zrotation Yrotation Xrotation
					End Site
					{
						OFFSET 0.000000 0.000000 0.000000
					}
				}
			}
		}
	}
	JOINT RightUpLeg
	{
		OFFSET -0.067670 -0.090522 -0.004320
		CHANNELS 3 Zrotation Yrotation Xrotation
		JOINT RightLeg
		{
			OFFSET -0.038290 -0.382569 -0.008850
			CHANNELS 3 Zrotation Yrotation Xrotation
			JOINT RightFoot
			{
				OFFSET 0.015774 -0.398415 -0.042312
				CHANNELS 3 Zrotation Yrotation Xrotation
				JOINT RightToe
				{
					OFFSET -0.025372 -0.048144 0.123348
					CHANNELS 3 Zrotation Yrotation Xrotation
					End Site
					{
						OFFSET 0.000000 0.000000 0.000000
					}
				}
			}
		}
	}
	JOINT Spine
	{
		OFFSET -0.002533 0.108963 -0.026696
		CHANNELS 3 Zrotation Yrotation Xrotation
		JOINT Spine1
		{
			OFFSET 0.005487 0.135180 0.001092
			CHANNELS 3 Zrotation Yrotation Xrotation
			JOINT Spine2
			{
				OFFSET 0.001457 0.052922 0.025425
				CHANNELS 3 Zrotation Yrotation Xrotation
				JOINT Neck
				{
					OFFSET -0.002778 0.213870 -0.042857
					CHANNELS 3 Zrotation Yrotation Xrotation
					JOINT Head
					{
						OFFSET 0.005152 0.064970 0.051349
						CHANNELS 3 Zrotation Yrotation Xrotation
						End Site
						{
							OFFSET 0.000000 0.000000 0.000000
						}
					}
				}
				JOINT LeftShoulder
				{
					OFFSET 0.078845 0.121749 -0.034090
					CHANNELS 3 Zrotation Yrotation Xrotation
					JOINT LeftArm
					{
						OFFSET 0.090977 0.030469 -0.008868
						CHANNELS 3 Zrotation Yrotation Xrotation
						JOINT LeftForeArm
						{
							OFFSET 0.259612 -0.012772 -0.027456
							CHANNELS 3 Zrotation Yrotation Xrotation
							JOINT LeftHand
							{
								OFFSET 0.249234 0.008986 -0.001171
								CHANNELS 3 Zrotation Yrotation Xrotation
								End Site
								{
									OFFSET 0.000000 0.000000 0.000000
								}
							}
						}
					}
				}
				JOINT RightShoulder
				{
					OFFSET -0.081759 0.118833 -0.038615
					CHANNELS 3 Zrotation Yrotation Xrotation
					JOINT RightArm
					{
						OFFSET -0.096012 0.032551 -0.009143
						CHANNELS 3 Zrotation Yrotation Xrotation
						JOINT RightForeArm
						{
							OFFSET -0.253742 -0.013329 -0.021401
							CHANNELS 3 Zrotation Yrotation Xrotation
							JOINT RightHand
							{
								OFFSET -0.255298 0.007772 -0.005559
								CHANNELS 3 Zrotation Yrotation Xrotation
								End Site
								{
									OFFSET 0.000000 0.000000 0.000000
								}
							}
						}
					}
				}
			}
		}
	}
}
MOTION
Frames: 11
Frame Time: 0.050000
-0.953243 0.931188 -1.128324 -8.458153 -41.065880 2.382623 14.676989 2.217948 -2.976296 -9.083805 3.434483 9.827070 10.855425 24.478541 -0.019628 0.000000 0.000000 0.000000 -9.143267 2.146131 -17.738311 13.402601 0.814394 24.644433 -12.383534 -28.219193 16.224341 0.000000 0.000000 0.000000 0.136127 0.344569 16.356462 0.533159 -0.367131 -2.481035 -7.964036 8.284887 17.100844 12.592729 -7.692246 -21.246312 0.000000 0.000000 0.000000 -28.051218 -9.445709 9.197953 -38.592618 -12.017157 -3.610881 6.087666 -48.464740 0.929180 0.000000 0.000000 0.000000 33.628460 -1.727337 -10.800852 57.825987 -11.464697 -10.759342 26.384169 57.738746 13.941311 0.000000 0.000000 0.000000 
-0.973679 0.927153 -1.140744 -8.107423 -40.895807 1.455560 15.629180 2.334880 -1.025196 -9.079559 3.229614 8.803114 10.286694 23.533221 -0.417920 0.000000 0.000000 0.000000 -11.225139 1.804330 -13.725871 13.171338 0.746248 24.279406 -11.969595 -27.154783 15.980850 0.000000 0.000000 0.000000 0.187133 0.151519 14.191723 0.323689 -0.286478 -2.477430 -7.322984 8.555623 17.203914 12.603475 -7.780196 -20.765177 0.000000 0.000000 0.000000 -28.463150 -8.503301 8.629300 -38.635791 -11.349074 -3.844045 3.106394 -49.500449 2.360464 0.000000 0.000000 0.000000 32.317649 -3.247634 -11.289881 59.237875 -12.469417 -11.838600 29.158747 56.132888 14.945503 0.000000 0.000000 0.000000 
-0.994737 0.922992 -1.155613 -7.294428 -40.905445 0.717885 16.069804 2.399266 -0.094401 -8.792609 2.955172 7.784713 9.576413 21.944691 -0.367359 0.000000 0.000000 0.000000 -13.461518 1.849981 -11.210791 13.389181 0.697981 24.845327 -12.163868 -27.070582 15.928278 0.000000 0.000000 0.000000 -0.254137 0.136140 13.077764 0.374761 -0.322839 -2.625053 -7.331027 9.031168 16.388205 12.646515 -7.821442 -20.108798 0.000000 0.000000 0.000000 -28.758429 -7.519988 7.772016 -38.928636 -10.411262 -4.039626 -0.352955 -50.688874 4.044232 0.000000 0.000000 0.000000 31.610017 -3.246897 -10.797791 60.188488 -13.144653 -12.545988 29.445249 55.788670 15.101160 0.000000 0.000000 0.000000 
-1.015435 0.916574 -1.173453 -6.175735 -40.714507 0.644078 16.142446 2.466353 -1.636520 -7.637353 2.744253 9.026799 9.017598 20.553141 -0.427782 0.000000 0.000000 0.000000 -15.802424 2.120379 -10.361226 12.331477 0.732977 24.185593 -10.809611 -25.348563 16.256869 0.000000 0.000000 0.000000 0.000494 0.020503 11.665162 0.180370 -0.178210 -1.988410 -7.806339 9.341503 15.522512 12.763271 -7.900151 -19.470158 0.000000 0.000000 0.000000 -29.320933 -7.722336 7.796150 -38.623201 -10.681741 -3.875915 -1.979214 -52.371959 4.961490 0.000000 0.000000 0.000000 32.901397 -2.328355 -10.464046 59.150269 -13.150068 -12.066078 28.968732 56.785750 15.255108 0.000000 0.000000 0.000000 
-1.035749 0.909935 -1.194836 -4.842947 -40.938704 0.233035 16.747575 2.669402 -2.566785 -7.842485 2.821098 9.124120 8.911934 19.832940 0.362671 0.000000 0.000000 0.000000 -15.835480 2.132921 -10.093639 9.442373 1.067977 22.884397 -9.578939 -23.491086 14.382944 0.000000 0.000000 0.000000 -0.022495 0.038466 11.824483 1.031773 -0.435595 -0.926816 -9.458427 10.528321 14.590409 13.993300 -8.166395 -20.871196 0.000000 0.000000 0.000000 -28.453599 -9.214458 7.919312 -39.798112 -11.909271 -3.263587 1.252287 -53.210946 3.275043 0.000000 0.000000 0.000000 34.432626 -0.618620 -8.905443 58.150518 -10.736638 -10.663926 25.362122 58.209391 14.260261 0.000000 0.000000 0.000000 
-1.055725 0.901028 -1.219531 -3.711655 -39.872656 0.214772 17.330606 2.978706 -5.543140 -7.281847 2.905342 11.289755 9.454106 20.197354 1.507928 0.000000 0.000000 0.000000 -15.581658 2.068581 -10.877218 9.707117 0.920539 22.425541 -10.002071 -23.610919 11.689873 0.000000 0.000000 0.000000 -0.107351 0.151681 13.652130 0.761393 -0.251943 -0.191091 -8.930411 9.815275 13.662800 14.188614 -8.008894 -21.492204 0.000000 0.000000 0.000000 -30.502936 -11.002767 9.296685 -38.488732 -13.998390 -2.575400 4.520695 -53.971546 1.507246 0.000000 0.000000 0.000000 34.129814 1.606808 -7.130583 57.132502 -8.678543 -9.352229 25.617114 61.054331 15.289867 0.000000 0.000000 0.000000 
-1.075808 0.894932 -1.246750 -2.789229 -39.842086 0.356938 17.767571 3.265294 -7.156605 -6.885298 2.855051 11.891514 8.938380 19.335227 0.535684 0.000000 0.000000 0.000000 -15.226874 2.049628 -11.458810 9.954028 0.857976 22.101265 -10.585074 -23.885907 8.962172 0.000000 0.000000 0.000000 0.639765 0.138754 14.896682 0.868100 -0.187678 0.825268 -9.539755 9.659493 13.717770 13.155811 -7.082145 -23.156846 0.000000 0.000000 0.000000 -29.842241 -12.024411 9.776729 -39.343263 -16.179069 -1.873826 9.639932 -55.614601 -1.007313 0.000000 0.000000 0.000000 32.136120 3.527758 -5.177219 58.746286 -6.553338 -8.855174 25.258766 64.640069 16.293908 0.000000 0.000000 0.000000 
-1.095997 0.889599 -1.275902 -2.511826 -39.374491 1.499569 18.700158 4.046886 -11.251113 -5.588266 2.813471 14.762883 8.317548 17.200014 1.711492 0.000000 0.000000 0.000000 -14.259746 2.074164 -14.929357 12.013106 0.743019 24.293270 -12.178801 -26.310045 6.656416 0.000000 0.000000 0.000000 0.912064 0.299525 17.519427 1.402115 -0.316054 1.828811 -9.268706 8.948206 12.418881 11.902554 -6.420973 -22.202149 0.000000 0.000000 0.000000 -31.886998 -13.557069 11.015637 -37.887465 -18.448780 -1.140869 15.013901 -55.897945 -3.999728 0.000000 0.000000 0.000000 32.293283 5.338698 -3.833723 56.408718 -3.985916 -7.041832 23.681474 67.952427 16.320096 0.000000 0.000000 0.000000 
-1.114107 0.889235 -1.304581 -2.069530 -40.090766 2.904493 18.866624 5.048089 -15.971431 -4.165149 2.954791 18.480507 8.504889 16.169935 4.963224 0.000000 0.000000 0.000000 -13.468717 2.369904 -18.798811 13.336609 0.805728 26.417213 -12.504217 -27.111762 4.864939 0.000000 0.000000 0.000000 0.669985 0.632564 20.070650 2.155278 -0.510476 2.891467 -9.469790 8.610558 11.693683 11.218172 -5.723548 -23.562454 0.000000 0.000000 0.000000 -31.577107 -14.694606 11.711686 -38.778785 -20.513178 -0.400234 24.238365 -57.069538 -8.920904 0.000000 0.000000 0.000000 31.071938 7.631658 -2.038102 56.144594 -1.587181 -5.855279 19.145826 73.314710 14.598087 0.000000 0.000000 0.000000 
-1.128941 0.887665 -1.330392 -2.539279 -41.512291 5.619882 20.015941 7.318353 -22.472555 -3.900657 4.214702 25.131787 8.677273 15.332484 8.066563 0.000000 0.000000 0.000000 -11.761018 3.173445 -24.549894 14.544774 1.037664 29.661953 -12.869506 -28.694867 4.580564 0.000000 0.000000 0.000000 1.044994 0.914974 22.453972 1.808584 -0.173414 3.881892 -9.187145 8.205418 9.817262 9.641519 -4.976135 -22.230644 0.000000 0.000000 0.000000 -31.663678 -15.892919 12.589663 -38.800187 -22.541611 0.375061 31.051723 -57.231456 -12.628898 0.000000 0.000000 0.000000 29.733320 9.761197 -0.525611 54.949551 0.473724 -4.594297 15.040608 76.160353 11.938618 0.000000 0.000000 0.000000 
-1.139845 0.883709 -1.351576 -1.639223 -43.350856 7.285395 19.631032 9.800439 -29.346651 -3.421374 6.282725 34.040572 8.162279 14.644973 5.969503 0.000000 0.000000 0.000000 -11.751167 4.120991 -28.986025 15.935689 1.162242 31.884640 -12.309871 -28.418138 2.632456 0.000000 0.000000 0.000000 1.264112 1.558797 26.093065 1.269688 0.116948 3.690088 -9.559517 7.595893 8.267060 8.322376 -4.417470 -20.987039 0.000000 0.000000 0.000000 -32.589057 -18.609291 15.066970 -36.075674 -24.544194 0.731576 39.163125 -56.647687 -16.974470 0.000000 0.000000 0.000000 29.952499 10.848467 -0.150747 52.049782 3.211796 -2.814654 12.949483 79.772264 10.628110 0.000000 0.000000 0.000000 
